# AST/ASF file generated using VICON BodyLanguage
# -----------------------------------------------
:version 1.10
:name VICON
:units
  mass 1.0
  length 0.45
  angle deg
:documentation
   .ast/.asf automatically generated from VICON data using
   VICON BodyBuilder and BodyLanguage model FoxedUp or BRILLIANT.MOD
:root
   order TX TY TZ RX RY RZ
   axis XYZ
   position 0 0 0  
   orientation 0 0 0 
:bonedata
  begin
     id 1 
     name lhipjoint
     direction 0.528046 -0.759594 0.379717 
     length 2.39752 
     axis 0 0 0  XYZ
  end
  begin
     id 2 
     name lfemur
     direction 0.34202 -0.939693 0  
     length 7.31175  
     axis 0 0 20  XYZ
    dof rx ry rz
    limits (-160.0 20.0)
           (-70.0 70.0)
           (-60.0 70.0)
  end
  begin
     id 3 
     name ltibia
     direction 0.34202 -0.939693 0   
     length 7.52482   
     axis 0 0 20   XYZ
    dof rx
    limits (-10.0 170.0)
  end
  begin
     id 4 
     name lfoot
     direction 0.0675379 -0.185559 0.980309   
     length 2.00961   
     axis -90 7.62852e-016 20   XYZ
    dof rx rz
    limits (-45.0 90.0)
           (-70.0 20.0)
  end
  begin
     id 5 
     name ltoes
     direction 1.5352e-011 -4.22286e-011 1   
     length 1.01383   
     axis -90 7.62852e-016 20   XYZ
    dof rx
    limits (-90.0 20.0)
  end
  begin
     id 6 
     name rhipjoint
     direction -0.510274 -0.769251 0.384544   
     length 2.36742  
     axis 0 0 0  XYZ 
  end
  begin
     id 7 
     name rfemur
     direction -0.34202 -0.939693 0   
     length 7.45325   
     axis 0 0 -20   XYZ
    dof rx ry rz
    limits (-160.0 20.0)
           (-70.0 70.0)
           (-70.0 60.0)
  end
  begin
     id 8 
     name rtibia
     direction -0.34202 -0.939693 0   
     length 7.49587   
     axis 0 0 -20   XYZ
    dof rx
    limits (-10.0 170.0)
 end
 begin
     id 9 
     name rfoot
     direction -0.106475 -0.292536 0.950308   
     length 2.20898  
     axis -90 -7.62852e-016 -20   XYZ
    dof rx rz
    limits (-45.0 90.0)
           (-20.0 70.0)
  end
  begin
     id 10 
     name rtoes
     direction -1.53597e-011 -4.22023e-011 1   
     length 1.10065   
     axis -90 -7.62852e-016 -20   XYZ
    dof rx
    limits (-90.0 20.0)
  end
  begin
     id 11 
     name lowerback
     direction 0.0260024 0.998026 -0.0571652   
     length 2.11214   
     axis 0 0 0   XYZ
    dof rx ry rz
    limits (-20.0 45.0)
           (-30.0 30.0)
           (-30.0 30.0)
  end
  begin
     id 12 
     name upperback
     direction 0.0216202 0.999542 -0.0211766   
     length 2.11689   
     axis 0 0 0   XYZ
    dof rx ry rz
    limits (-20.0 45.0)
           (-30.0 30.0)
           (-30.0 30.0)
  end
  begin
     id 13 
     name thorax
     direction 0.00883312 0.999944 0.00589057   
     length 2.11821   
     axis 0 0 0   XYZ
    dof rx ry rz
    limits (-20.0 45.0)
           (-30.0 30.0)
           (-30.0 30.0)
  end
  begin
     id 14 
     name lowerneck
     direction -0.059386 0.994433 0.0870401   
     length 1.81176   
     axis 0 0 0   XYZ
    dof rx ry rz
    limits (-20.0 45.0)
           (-30.0 30.0)
           (-30.0 30.0)
  end
  begin
     id 15 
     name upperneck
     direction 0.0506457 0.97328 -0.223967   
     length 1.82382   
     axis 0 0 0   XYZ
    dof rx ry rz
    limits (-20.0 45.0)
           (-30.0 30.0)
           (-30.0 30.0)
  end
  begin
     id 16
     name head
     direction 0.0205902 0.996147 -0.0852487  
     length 1.84805  
     axis 0 0 0   XYZ
    dof rx ry rz
    limits (-20.0 45.0)
           (-30.0 30.0)
           (-30.0 30.0)
  end
  begin
     id 17 
     name lclavicle
     direction 0.949493 0.303881 -0.0782325  
     length 3.60584  
     axis 0 0 0   XYZ
    dof ry rz
    limits (-20.0 10.0)
           (0.0 20.0)
  end
  begin
     id 18 
     name lhumerus
     direction 1 -4.48965e-011 1.48782e-027   
     length 4.95681   
     axis 180 -30 -90   XYZ
    dof rx ry rz
    limits (-60.0 90.0)
           (-90.0 90.0)
           (-90.0 90.0)
  end
  begin
     id 19
     name lradius
     direction 1 -4.48952e-011 2.06528e-027   
     length 3.40915   
     axis 180 -30 -90   XYZ
    dof rx
    limits (-10.0 170.0)
  end
  begin
     id 20
     name lwrist
     direction 1 -4.48964e-011 1.28021e-027   
     length 1.70457   
     axis -1.61767e-015 90 90   XYZ
    dof ry
    limits (-180.0 0.0)
 end
  begin
     id 21 
     name lhand
     direction 1 -4.49094e-011 2.54887e-027   
     length 0.616403   
     axis -1.63363e-015 90 90   XYZ
    dof rx rz
    limits (-90.0 90.0)
           (-45.0 45.0)
  end
  begin
     id 22 
     name lfingers
     direction 1 -4.49002e-011 5.11407e-027   
     length 0.49696   
     axis -3.26723e-015 90 90   XYZ
    dof rx
    limits (0.0 90.0)
  end
  begin
     id 23
     name lthumb
     direction 0.707107 -6.34998e-011 0.707107   
     length 0.713539   
     axis -90 45 -2.25915e-014   XYZ
    dof rx rz
    limits (-45.0 45.0)
           (-45.0 45.0)
  end
  begin
     id 24 
     name rclavicle
     direction -0.937751 0.334612 -0.0930482   
     length 3.46287  
     axis 0 0 0   XYZ 
    dof ry rz
    limits (-10.0 20.0)
           (-20.0 0.0)
  end
  begin
     id 25 
     name rhumerus
     direction -1 -4.48962e-011 3.59972e-027  
     length 5.352   
     axis 180 30 90   XYZ
    dof rx ry rz
    limits (-90.0 60.0)
           (-90.0 90.0)
           (-90.0 90.0)
  end
  begin
     id 26 
     name rradius
     direction -1 -4.48987e-011 -3.76925e-027   
     length 3.43721   
     axis 180 30 90   XYZ
    dof rx
    limits (-10.0 170.0)
  end
  begin
     id 27 
     name rwrist
     direction -1 -4.48943e-011 1.28112e-027   
     length 1.7186   
     axis -1.61767e-015 -90 -90   XYZ
    dof ry
    limits (-180.0 0.0)
  end
  begin
     id 28
     name rhand
     direction -1 -4.49027e-011 2.55483e-027   
     length 0.72009   
     axis -1.63363e-015 -90 -90   XYZ
    dof rx rz
    limits (-90.0 90.0)
           (-45.0 45.0)
  end
  begin
     id 29
     name rfingers
     direction -1 -4.48827e-011 5.14506e-027   
     length 0.580555   
     axis -3.26723e-015 -90 -90   XYZ
    dof rx
    limits (0.0 90.0)
  end
  begin
     id 30
     name rthumb
     direction -0.707107 -6.34936e-011 0.707107   
     length 0.833564   
     axis -90 -45 2.25915e-014   XYZ
    dof rx rz
    limits (-45.0 45.0)
           (-45.0 45.0)
  end
:hierarchy
  begin
    root lhipjoint rhipjoint lowerback
    lhipjoint lfemur
    lfemur ltibia
    ltibia lfoot
    lfoot ltoes
    rhipjoint rfemur
    rfemur rtibia
    rtibia rfoot
    rfoot rtoes
    lowerback upperback
    upperback thorax
    thorax lowerneck lclavicle rclavicle
    lowerneck upperneck
    upperneck head
    lclavicle lhumerus
    lhumerus lradius
    lradius lwrist
    lwrist lhand lthumb
    lhand lfingers
    rclavicle rhumerus
    rhumerus rradius
    rradius rwrist
    rwrist rhand rthumb
    rhand rfingers
  end

#!OML:ASF H:\Terrain\Patient Classification 1\Terrain2\Thursday\justin.ASF
:FULLY-SPECIFIED
:DEGREES
1
root -0.180922 20.6975 12.2039 41.4593 -83.1401 -38.2413
lowerback 0.233816 1.98484 4.00415
upperback -0.524788 2.6359 3.0244
thorax -0.630828 1.28317 0.841935
lowerneck -19.4172 0.132425 -6.04222
upperneck 27.5212 1.53392 1.1668
head 12.2746 0.0667997 1.68585
rclavicle -2.37796e-014 -2.38542e-015
rhumerus -32.0944 -8.55776 -82.9825
rradius 26.1771
rwrist -8.58043
rhand -20.9178 11.2077
rfingers 7.12502
rthumb 5.45372 -18.7021
lclavicle -2.37796e-014 -2.38542e-015
lhumerus -36.2955 5.96061 87.5033
lradius 27.1954
lwrist 0.552264
lhand -16.6118 23.0102
lfingers 7.12502
lthumb 9.60993 52.7711
rfemur -8.40462 -3.82796 28.3382
rtibia 30.8864
rfoot -21.2778 -6.29378
rtoes 9.20389
lfemur -10.1 -2.12484 -15.2217
ltibia 30.4633
lfoot -18.075 -9.24128
ltoes 11.7991
2
root -0.179457 20.6978 12.2096 39.936 -83.2829 -36.601
lowerback 0.159564 2.00555 3.77299
upperback -0.566846 2.66152 2.99352
thorax -0.640991 1.29761 0.940366
lowerneck -19.3392 0.104342 -6.10319
upperneck 27.4704 1.52156 1.11973
head 12.2399 0.0499438 1.67498
rclavicle 1.80149e-014 -9.54166e-015
rhumerus -32.1174 -8.53424 -82.8844
rradius 26.1612
rwrist -8.58866
rhand -20.9395 11.2803
rfingers 7.12502
rthumb 5.43279 -18.63
lclavicle 1.80149e-014 -9.54166e-015
lhumerus -36.3091 5.98853 87.6279
lradius 27.197
lwrist 0.596882
lhand -16.7183 23.0533
lfingers 7.12502
lthumb 9.5072 52.8188
rfemur -8.60613 -3.85601 28.0468
rtibia 30.9941
rfoot -21.4329 -6.24431
rtoes 9.97511
lfemur -10.1225 -2.40041 -15.536
ltibia 30.2668
lfoot -18.0341 -9.09114
ltoes 11.9192
3
root -0.177541 20.7006 12.2133 38.3565 -83.3846 -34.8564
lowerback 0.0117054 2.03021 3.62378
upperback -0.600864 2.68902 2.88677
thorax -0.594392 1.31355 0.918595
lowerneck -19.2772 0.0583259 -6.16013
upperneck 27.3931 1.44583 1.20062
head 12.1984 0.0243334 1.70198
rclavicle 7.72775e-015 -3.18055e-015
rhumerus -32.1167 -8.6319 -82.9108
rradius 26.1343
rwrist -8.5377
rhand -21.006 11.4058
rfingers 7.12502
rthumb 5.36853 -18.5062
lclavicle 7.72775e-015 -3.18055e-015
lhumerus -36.269 5.88944 87.6302
lradius 27.1791
lwrist 0.591715
lhand -16.6636 23.0224
lfingers 7.12502
lthumb 9.55991 52.7855
rfemur -8.77478 -3.44819 27.8178
rtibia 31.0159
rfoot -21.5315 -6.42504
rtoes 11.1445
lfemur -10.2535 -2.54757 -15.8236
ltibia 30.1831
lfoot -18.0088 -8.77105
ltoes 11.2166
4
root -0.176978 20.6998 12.2062 38.9226 -83.2995 -35.4972
lowerback 0.0785478 2.03034 3.69554
upperback -0.572107 2.69214 2.87139
thorax -0.598298 1.31486 0.861027
lowerneck -19.218 0.0501788 -6.10353
upperneck 27.3049 1.39679 1.25014
head 12.1529 0.0187179 1.70203
rclavicle 8.99501e-015 -9.54166e-015
rhumerus -32.1282 -8.60577 -83.0767
rradius 26.1275
rwrist -8.60867
rhand -21.1774 11.4686
rfingers 7.12502
rthumb 5.20303 -18.4475
lclavicle 8.99501e-015 -9.54166e-015
lhumerus -36.2318 5.86926 87.5228
lradius 27.1283
lwrist 0.370903
lhand -16.7159 23.0127
lfingers 7.12502
lthumb 9.50949 52.7781
rfemur -8.69129 -2.77687 28.0105
rtibia 31.0782
rfoot -21.6555 -6.89102
rtoes 12.6337
lfemur -10.138 -2.48632 -15.6888
ltibia 30.0907
lfoot -18.0269 -8.63294
ltoes 9.92836
5
root -0.181762 20.6985 12.1853 40.0355 -83.2072 -36.7557
lowerback 0.185533 2.01503 3.5586
upperback -0.533399 2.675 2.9786
thorax -0.630095 1.30668 1.04381
lowerneck -19.206 0.0601201 -6.10764
upperneck 27.3129 1.39228 1.31181
head 12.1526 0.0242458 1.72533
rclavicle 2.60656e-014 7.15625e-015
rhumerus -32.145 -8.48459 -83.1891
rradius 26.084
rwrist -8.63292
rhand -21.3119 11.3951
rfingers 7.12502
rthumb 5.07319 -18.5241
lclavicle 2.60656e-014 7.15625e-015
lhumerus -36.2626 5.9913 87.4789
lradius 27.1152
lwrist 0.203014
lhand -16.9395 23.0353
lfingers 7.12502
lthumb 9.29373 52.8104
rfemur -8.53755 -2.40673 28.2954
rtibia 31.1242
rfoot -21.7624 -7.17295
rtoes 13.2576
lfemur -9.95914 -2.29624 -15.4193
ltibia 30.0405
lfoot -17.9945 -8.78298
ltoes 9.45281
6
root -0.174846 20.7007 12.2036 36.8699 -83.4047 -33.4777
lowerback 0.173404 2.00224 3.35375
upperback -0.56384 2.66107 2.83734
thorax -0.657184 1.30183 1.01264
lowerneck -19.2117 0.0170161 -6.28488
upperneck 27.3232 1.3488 1.44691
head 12.1572 0.0041739 1.79976
rclavicle -1.72197e-014 -7.15625e-015
rhumerus -32.1457 -8.52008 -83.1193
rradius 26.0733
rwrist -8.49769
rhand -21.4219 11.3755
rfingers 7.12502
rthumb 4.96701 -18.5463
lclavicle -1.72197e-014 -7.15625e-015
lhumerus -36.2584 6.00796 87.5868
lradius 27.1474
lwrist 0.311028
lhand -17.0121 23.0309
lfingers 7.12502
lthumb 9.22365 52.8092
rfemur -8.70601 -3.22186 27.6886
rtibia 31.1346
rfoot -21.651 -6.56947
rtoes 11.6173
lfemur -10.0671 -2.25504 -15.9577
ltibia 30.034
lfoot -17.9404 -8.8465
ltoes 9.83391
7
root -0.170906 20.7 12.2081 36.3294 -83.4126 -32.9141
lowerback 0.200894 2.01116 3.37406
upperback -0.564857 2.67513 2.80032
thorax -0.670855 1.30878 0.962261
lowerneck -19.1832 -0.0333949 -6.40144
upperneck 27.2757 1.27634 1.57022
head 12.1339 -0.0217779 1.85397
rclavicle 4.77083e-015 -1.11319e-014
rhumerus -32.1668 -8.52815 -83.122
rradius 26.133
rwrist -8.45027
rhand -21.5278 11.4452
rfingers 7.12502
rthumb 4.86474 -18.479
lclavicle 4.77083e-015 -1.11319e-014
lhumerus -36.2126 5.93869 87.6444
lradius 27.1668
lwrist 0.399069
lhand -16.8666 22.956
lfingers 7.12502
lthumb 9.3641 52.728
rfemur -8.7536 -3.26756 27.6347
rtibia 31.1158
rfoot -21.5083 -6.74982
rtoes 10.1293
lfemur -10.1293 -2.33276 -16.0498
ltibia 30.0505
lfoot -17.8896 -8.75815
ltoes 9.93852
8
root -0.16807 20.7032 12.2097 37.4075 -83.2462 -34.0418
lowerback 0.264378 1.88959 3.556
upperback -0.567171 2.51497 2.91491
thorax -0.707424 1.22608 0.977162
lowerneck -19.0551 0.061364 -6.48793
upperneck 27.2022 1.4161 1.61161
head 12.071 0.0386177 1.90367
rclavicle -3.55825e-014 -5.1684e-014
rhumerus -32.1893 -8.03559 -83.2467
rradius 26.1678
rwrist -8.46979
rhand -21.4969 11.6088
rfingers 7.12502
rthumb 4.89454 -18.3147
lclavicle -3.55825e-014 -5.1684e-014
lhumerus -36.2896 6.18949 87.6007
lradius 27.2075
lwrist 0.461188
lhand -16.8085 22.9448
lfingers 7.12502
lthumb 9.42013 52.7142
rfemur -8.68222 -3.21678 27.8573
rtibia 31.0741
rfoot -21.4995 -6.84231
rtoes 10.118
lfemur -10.114 -2.4942 -15.8205
ltibia 30.0916
lfoot -17.7937 -8.82036
ltoes 10.9068
9
root -0.167539 20.709 12.2169 38.7894 -83.0603 -35.4058
lowerback 0.216935 1.72939 3.79551
upperback -0.586362 2.29609 3.09834
thorax -0.7006 1.11327 1.0348
lowerneck -18.8973 0.194805 -6.69975
upperneck 27.1321 1.65349 1.63481
head 11.9986 0.126401 1.98193
rclavicle -3.08116e-015 3.97569e-015
rhumerus -32.2011 -7.35616 -83.2821
rradius 26.211
rwrist -8.60095
rhand -21.3961 11.6874
rfingers 7.12502
rthumb 4.99193 -18.2338
lclavicle -3.08116e-015 3.97569e-015
lhumerus -36.4096 6.67136 87.5829
lradius 27.2602
lwrist 0.5943
lhand -16.7071 22.9287
lfingers 7.12502
lthumb 9.51798 52.6937
rfemur -8.67009 -3.55967 28.0417
rtibia 30.9683
rfoot -21.4654 -6.45365
rtoes 10.4031
lfemur -10.1719 -2.68806 -15.5712
ltibia 30.1938
lfoot -17.8606 -8.82478
ltoes 11.6544
10
root -0.165706 20.7061 12.2235 40.4008 -82.8907 -36.9924
lowerback 0.170489 1.67891 4.07883
upperback -0.584794 2.22275 3.2353
thorax -0.668381 1.0735 1.01986
lowerneck -18.9072 0.193152 -6.94654
upperneck 27.1699 1.70253 1.73029
head 12.0102 0.13327 2.06758
rclavicle 7.85199e-015 1.43125e-014
rhumerus -32.2372 -7.0512 -83.2415
rradius 26.3478
rwrist -8.82155
rhand -21.1401 11.4046
rfingers 7.12502
rthumb 5.23911 -18.5107
lclavicle 7.85199e-015 1.43125e-014
lhumerus -36.4229 6.90741 87.6475
lradius 27.3161
lwrist 0.687142
lhand -16.413 22.9837
lfingers 7.12502
lthumb 9.8017 52.7355
rfemur -8.68547 -3.74741 28.2926
rtibia 30.8787
rfoot -21.3185 -6.34916
rtoes 10.0625
lfemur -10.2531 -2.72641 -15.3162
ltibia 30.2782
lfoot -18.0721 -8.6685
ltoes 11.0435
